<svg width="197" height="50" xmlns="http://www.w3.org/2000/svg">
 <g>
  <title>Layer 1</title>
  <g stroke="null">
   <path stroke="null" fill="#ffffff" d="m5.78829,25.97223c-3.59858,-0.03396 -3.66336,-4.00277 -2.67723,-6.90701l0.09562,0c0.25501,0.23704 0.51001,0.47423 0.76502,0.71141c0.69469,0.66689 1.56173,1.51543 1.96012,2.43231c0.00794,-0.01537 0.01568,-0.03061 0.02376,-0.04585c0.21963,-0.30791 0.35521,-1.0156 0.38251,-1.44581c-0.66821,-0.44265 -1.35411,-1.09431 -1.62546,-1.90448c-0.43194,-1.29023 0.04264,-3.35502 0.26294,-4.65833c0.12344,-0.73018 -0.07745,-1.43902 -0.14338,-2.0423l0.07166,0c1.42362,0.53059 1.82066,1.81269 2.12744,3.41913c0.15394,0.80581 0.04317,1.70631 0.43022,2.27168c0.02395,-0.01519 0.0479,-0.03043 0.07185,-0.0458c0.18114,-0.39506 1.21025,-1.74665 1.21905,-2.08824c-0.11961,-0.31364 -0.23918,-0.62738 -0.35861,-0.94083c-0.37491,-0.92496 -0.84883,-2.1692 -0.62145,-3.51092c0.33475,-1.97575 1.13605,-3.55301 1.64927,-5.41558c0.53831,0.16416 0.73619,1.00399 0.90835,1.53746c0.63431,1.9657 0.26328,3.94774 0.0479,5.98922c0.77463,-0.56895 1.16034,-1.55463 1.91221,-2.13391c-0.41641,-1.25448 -0.6476,-3.47696 -0.14333,-4.79596c0.36917,-0.96612 0.9453,-1.76381 1.29086,-2.82269l0.92991,-3.1819l0.0261,0l0.04786,0.01537c0.17536,0.26766 0.35062,0.53527 0.52584,0.80306c0.38624,0.62448 0.73705,1.36664 0.9563,2.11123c0.63144,2.14446 -0.31625,3.82957 -0.88444,5.32379c0.00794,0.02281 0.01568,0.0458 0.02376,0.06861c1.24386,-0.62201 1.76329,-1.85836 2.86851,-2.61589c1.75081,-1.20005 4.30054,-1.35242 7.24287,-1.26205c-0.14471,0.59566 -0.78844,1.12506 -1.14734,1.56046c-1.26996,1.53939 -4.47475,3.97574 -7.43414,2.57009c-0.48338,0.3136 -1.60777,1.01725 -1.8645,1.49161c0.03189,0.0458 0.06378,0.09165 0.09566,0.13745c2.30433,-0.30827 5.25072,-0.56781 6.90807,0.50484c0.26093,0.16885 0.57886,0.3633 0.6694,0.68842c-1.13252,0.36702 -2.41295,0.53476 -3.70519,0.7574c-0.58149,0.03818 -1.16321,0.07641 -1.74489,0.1146c-0.45417,0.0078 -0.90839,0.01542 -1.36257,0.02299c-0.55758,-0.07641 -1.11564,-0.15283 -1.67322,-0.22938c-0.35062,-0.09959 -0.70129,-0.199 -1.05172,-0.29841c-0.61242,0.78328 -1.39426,1.46119 -1.96012,2.29486c0.75555,-0.09702 1.41769,-0.3353 2.10344,-0.50484c0.64952,-0.16063 1.25074,-0.18472 1.96012,-0.29841c0.31606,-0.05067 0.76248,-0.09987 1.09962,-0.0458c0.71377,0.11464 1.97599,0.33677 1.81679,1.10128c-0.45422,0.13777 -0.90859,0.27555 -1.36257,0.41319c-1.24286,0.40525 -2.48614,0.81082 -3.72914,1.2162c-1.05918,0.25793 -2.05779,0.07063 -3.0835,0c-0.30277,0.43586 -0.60568,0.87204 -0.90839,1.3079c-0.47091,0.7394 -0.81632,1.56417 -1.05172,2.52424c2.27158,-1.22804 4.20727,-3.90951 7.86437,-2.63888l0,0.09165c-0.40053,0.11946 -0.73026,0.39244 -1.05172,0.59676c-1.41281,0.8976 -2.3846,2.24612 -3.77686,3.12073c-0.57125,0.35894 -1.38078,0.64748 -2.31867,0.61976c-0.39738,-0.01198 -0.83248,-0.11217 -1.17134,-0.04612c-0.3206,0.7613 -0.88473,3.7912 -0.33461,4.68132c0.65879,-0.43228 1.07787,-1.36192 1.50594,-2.01926c1.04699,-1.60791 2.28745,-3.10228 5.01986,-3.09792c-0.36649,0.53545 -0.73318,1.07085 -1.09967,1.60626c-0.80446,1.15732 -1.42089,2.60166 -2.55762,3.44212c-0.49926,0.36899 -1.09609,0.6797 -1.67341,0.96383c-0.27002,0.13291 -0.76975,0.22438 -0.93215,0.45885c-0.23713,0.34256 0.49366,2.65426 0.69316,2.86845l0,-0.04599c0.29483,-0.55826 0.58961,-1.11679 0.88444,-1.67505c0.85676,-1.39175 1.85671,-3.09158 3.80081,-3.41927c-0.23899,0.68098 -0.47812,1.36178 -0.71712,2.04244c-0.38385,1.46362 -0.60242,3.05367 -1.14738,4.40591c-0.34254,0.78769 -0.68542,1.57565 -1.02791,2.36352c-0.07979,0.43196 0.54391,1.07893 0.66936,1.42263l0.02395,0c0.00134,-2.27636 1.32193,-5.80105 3.27478,-6.01203l0,0.50484c-0.02395,0.39001 -0.0479,0.7802 -0.07166,1.17026c-0.17541,0.99733 -0.1798,2.01637 -0.45436,2.91429c-0.23665,0.77405 -0.495,1.5002 -0.81259,2.2027c-0.18334,0.3672 -0.36664,0.7344 -0.54979,1.1016c0.48807,0.62237 0.77931,1.26288 1.43423,1.72104c-0.04437,-1.56431 0.08668,-2.93256 0.47798,-4.15335c0.27891,-0.7802 0.55787,-1.56059 0.83668,-2.34066l0.07166,0c0.01602,0.00762 0.03189,0.01537 0.0479,0.02299c0.27642,0.75772 0.74848,1.3532 0.98006,2.29467c0.41994,1.70764 0.09074,4.69637 -0.14352,6.35642c0.73786,0.56877 1.18917,1.28408 2.10363,1.72104c-0.22312,-0.53559 -0.44628,-1.07118 -0.6694,-1.60644c-0.46665,-1.45875 -0.48032,-3.90547 0,-5.36955l0.02395,0c0.4906,0.23135 1.0708,1.19711 1.38633,1.65224c1.2845,1.85216 1.90141,3.5682 1.8886,6.65446c0.87163,0.40589 1.44996,0.47565 2.72499,0.43618c-0.01602,-0.02299 -0.03208,-0.04599 -0.04776,-0.06884c-1.79432,-0.75221 -2.36333,-4.4132 -2.43824,-6.88434c0.66281,0.13516 1.31466,0.69053 1.8166,1.03262c1.51656,1.03423 3.7976,3.31839 3.25083,6.104c1.8186,0.23135 2.98755,1.52351 3.777,2.77666c0.27222,0.43228 0.7959,1.28697 0.40632,1.90466c-0.33312,0.10166 -0.64206,-0.00909 -0.81278,-0.25242c-0.15141,-0.33659 -0.30272,-0.67318 -0.45417,-1.00963c-0.42515,-0.71871 -0.96725,-1.31565 -1.67303,-1.76689c-0.2105,-0.13452 -0.93655,-0.66574 -1.31486,-0.41319c-0.34928,0.15352 -0.91767,1.12574 -1.31466,1.42282c-1.10737,0.82835 -2.99195,1.58524 -5.11547,1.23906c-0.63938,-0.10409 -1.55265,-0.062 -1.8886,-0.45899c0.20624,-0.78975 2.89461,-2.24786 3.77705,-2.52424c-0.2105,-0.1833 -2.20097,-0.93193 -2.55786,-0.9865c-0.28469,0.3599 -0.75154,0.56845 -1.17115,0.80306c-1.5624,0.87296 -3.72761,0.91087 -5.68921,0.34421c-0.60395,-0.17454 -1.49346,-0.30713 -1.84055,-0.7344c0.11335,-0.36284 0.69589,-0.63031 1.00387,-0.82605c1.30821,-0.83106 3.14608,-1.13786 5.33065,-1.14741l0,-0.02299c-0.11163,-0.11464 -0.22331,-0.22943 -0.3348,-0.34421a3968.91711,3810.07728 0 0 1 -1.17115,-0.91784c-0.37457,0.16077 -0.74896,0.32135 -1.12358,0.48198c-0.735,0.25999 -1.44284,0.36169 -2.34258,0.48198c-1.69603,0.22617 -3.54193,-1.47706 -4.23089,-2.31785c-0.29497,-0.3599 -0.78309,-0.79475 -0.86049,-1.33098c2.41109,-0.70205 4.62621,0.17321 6.50166,0.66556l0,-0.02299c-0.3599,-0.55987 -1.09709,-1.54118 -1.62532,-1.92747c-0.85643,0.23397 -2.04851,-0.03093 -2.70118,-0.20643c-2.08814,-0.56198 -3.45626,-1.84555 -4.47002,-3.44208c-0.22905,-0.36105 -0.53095,-0.7898 -0.6215,-1.26223c2.62474,-0.14828 4.06624,0.69782 5.61736,1.60644c-0.13931,-0.35508 -0.62638,-1.45068 -0.9082,-1.60644c-0.3108,-0.09165 -0.62164,-0.18344 -0.9323,-0.27523c-0.56705,-0.21502 -1.15393,-0.51829 -1.62551,-0.84905c-1.09135,-0.76566 -1.99014,-1.83146 -2.5099,-3.14386c-0.19921,-0.69603 -0.39857,-1.39225 -0.59755,-2.0881c-0.16733,-0.40543 -0.3348,-0.81082 -0.50208,-1.21625c1.85924,-0.02864 2.92091,0.88695 3.82471,1.79002c0.19128,0.20643 0.38237,0.41287 0.5736,0.61948c0.01286,-0.78365 -0.12511,-1.64853 -0.16728,-2.43249zm47.09312,-25.57841l-0.07869,0c-0.91662,1.60323 -2.19012,3.35887 -1.5255,6.00459c0.21231,0.84482 0.6269,1.48611 0.90839,2.24887c-0.00813,0.02281 -0.01606,0.0458 -0.02381,0.06861c-1.23961,-0.63353 -1.76157,-1.85689 -2.86846,-2.61589c-1.737,-1.19082 -4.31082,-1.37587 -7.24306,-1.26205c0.15112,0.5981 0.78591,1.12166 1.14753,1.56046c1.08514,1.31643 2.50015,2.37999 4.47002,2.84531c0.63125,0.14925 1.54978,0.17679 2.19911,0.02299c0.26294,-0.09941 0.52584,-0.19881 0.78878,-0.29822c0.21523,0.0497 1.65061,1.25296 1.84069,1.46848l0,0.02313c-0.03896,0.05067 -0.04011,0.07641 -0.09562,0.11464c-0.72505,-0.08422 -1.45025,-0.16825 -2.1753,-0.25242c-1.60916,-0.24742 -3.57683,0.06783 -4.56568,0.64243c-0.35196,0.20464 -0.55538,0.49089 -0.83649,0.7574l0,0.06866c1.62752,0.55629 5.1399,1.19532 7.33848,0.84905c0.79064,-0.12451 1.48132,-0.35784 2.17515,-0.48185c0.40713,0.29189 1.73159,1.80282 1.93616,2.24901c0.01602,0.01505 0.03189,0.03043 0.0479,0.04585c-0.39852,-0.08422 -0.79691,-0.16839 -1.19529,-0.2526c-1.26117,-0.34031 -5.57892,-1.3945 -5.80864,0.48198c0.70129,0.21424 1.40253,0.42824 2.10363,0.64261c1.44504,0.53981 2.70252,0.96934 4.51778,1.19325c0.53698,0.06623 1.10197,-0.13016 1.5538,-0.18362c0.7775,0.6936 1.72012,2.62126 1.98407,3.83214c-2.21565,-1.21248 -4.29313,-3.92149 -7.86437,-2.63888l0,0.09165c0.4012,0.12593 0.7272,0.39116 1.05172,0.59676c1.41449,0.896 2.38446,2.24566 3.77686,3.12073c0.53817,0.33838 1.19271,0.49901 1.96012,0.61976c0.50241,0.07889 1.1057,-0.20056 1.48194,-0.04612c0.26074,0.16678 0.25974,0.73229 0.33461,1.07861c0.23579,1.09013 0.28809,2.51666 0.07171,3.60271c-0.5375,-0.22603 -1.19744,-1.50942 -1.5297,-2.01926c-1.04063,-1.59657 -2.29238,-3.1199 -5.01986,-3.09792c0.36649,0.53545 0.73313,1.07085 1.09962,1.60626c0.80245,1.15764 1.42142,2.6023 2.55766,3.44212c0.53463,0.3952 1.18783,0.7428 1.8166,1.03262c0.25362,0.11676 0.6935,0.19702 0.81273,0.436c0.29277,0.58625 -0.55471,2.24433 -0.66921,2.79951c-0.01602,0.0078 -0.03189,0.01537 -0.0479,0.02299c-0.14538,-0.4561 -0.43429,-0.87397 -0.66921,-1.26205c-0.94903,-1.56789 -1.84562,-3.5106 -4.01585,-3.87826c0.23899,0.68098 0.47793,1.36178 0.71712,2.04244c0.40426,1.53145 0.64258,3.19273 1.21905,4.58935c0.54979,1.33218 1.46626,2.2798 0.28685,3.55691l0,0.0458c-0.08768,-0.64261 -0.17522,-1.28518 -0.26289,-1.92747c-0.47817,-1.84573 -1.22058,-3.44988 -2.96413,-4.08455l-0.07166,0c0.00234,2.51923 0.46158,4.68022 1.219,6.44789c0.19768,0.4611 0.35822,0.99214 0.6694,1.35402c-0.09848,0.60324 -0.98594,1.49712 -1.43423,1.81283c0.00574,-1.05236 0.072,-2.12257 -0.16747,-3.05207c-0.23899,-0.76469 -0.47798,-1.52984 -0.71712,-2.29467c-0.14338,-0.38225 -0.28675,-0.76483 -0.43008,-1.14727l-0.09581,0c-0.38657,0.71646 -0.78443,1.41717 -1.00382,2.31767c-0.38251,1.56968 -0.15992,4.82511 0.14333,6.33324c-0.51436,0.69167 -1.27451,1.35857 -2.10344,1.74422c0.11942,-0.25256 0.23899,-0.50516 0.35856,-0.7574c0.22666,-0.53591 0.39465,-1.13882 0.52588,-1.74403c0.32968,-1.52044 -0.0808,-3.12105 -0.19128,-4.45176c-0.00794,-0.00762 -0.01587,-0.01519 -0.02395,-0.02281c-0.42348,0.12772 -1.10197,1.20845 -1.36238,1.58326c-1.22866,1.76799 -2.00142,3.68688 -1.93636,6.70058c-0.554,0.53348 -1.69397,0.51002 -2.72494,0.45904c0.53984,-0.59759 1.20165,-0.96369 1.55365,-1.76689c0.42989,-0.98113 0.54051,-2.19316 0.76502,-3.37328c0.05565,-0.55082 0.11149,-1.1016 0.16728,-1.65224l0,-0.16077c-0.66481,0.13892 -1.31213,0.68938 -1.81674,1.03262c-1.49514,1.01739 -3.81902,3.34203 -3.25097,6.104c-1.8242,0.25448 -3.11539,1.56174 -3.84838,2.89144c-0.13984,0.25357 -0.79605,1.44439 -0.33461,1.78988c0.50561,0.37854 0.92795,-0.45706 1.05172,-0.7344c0.49687,-1.11409 1.61184,-2.73315 3.17916,-2.75353c0.44624,0.46776 0.81613,1.07732 1.33862,1.46862c1.14074,0.85423 3.1577,1.62815 5.37837,1.23906c0.55184,-0.09665 1.09207,-0.21566 1.55385,-0.36702c0.02376,-0.04612 0.04771,-0.09197 0.07152,-0.13777c-0.72539,-1.30189 -2.52716,-1.61791 -3.729,-2.47843l-0.04771,0c0.84462,-0.32883 1.68943,-0.65767 2.53371,-0.9865c0.57427,0.42113 1.15341,0.8764 1.86464,1.17026c1.40086,0.57845 3.59031,0.38501 5.01986,-0.02299c0.45384,-0.12951 1.74876,-0.42113 1.8405,-0.80306c-1.48768,-1.29459 -3.43331,-1.93766 -6.33447,-1.9048l0,-0.02299c0.39852,-0.50741 1.06874,-0.77506 1.48194,-1.26205c0.38251,0.16077 0.76488,0.32135 1.14738,0.48198c0.73413,0.25903 1.44284,0.36637 2.34262,0.48198c1.70693,0.21892 3.53414,-1.46977 4.23103,-2.31785c0.29464,-0.35862 0.78443,-0.79576 0.86049,-1.33098c-2.23707,-0.63582 -4.76471,0.04484 -6.4779,0.66556l-0.02395,0c0.31845,-0.7266 1.14418,-1.14419 1.48199,-1.83582c0.30324,-0.19721 0.99421,0.01179 1.52985,-0.06884c0.50193,-0.09161 1.00401,-0.18358 1.50594,-0.27523c1.89161,-0.55532 4.5196,-2.75495 4.90024,-4.68132c-2.6649,-0.10849 -4.01379,0.70641 -5.61721,1.60644c0.25568,-0.58726 0.57293,-1.06971 0.86049,-1.60644c2.20379,-0.48185 4.07876,-1.93169 4.90029,-3.74035c0.34522,-0.75983 0.49481,-1.61791 0.76483,-2.45526c0.18334,-0.45885 0.36664,-0.91784 0.54984,-1.37688c-1.86297,-0.00418 -2.87898,0.86295 -3.80066,1.76689c-0.19917,0.21419 -0.39852,0.42842 -0.59755,0.64261c-0.00861,-0.78397 0.13391,-1.64788 0.16733,-2.43249c2.56369,-0.04805 3.61087,-2.06685 3.10745,-4.79592c-0.13544,-0.69603 -0.27102,-1.39207 -0.40646,-2.0881c-0.03189,-0.00776 -0.06373,-0.01537 -0.09562,-0.02299c-0.74527,0.53784 -1.4904,1.3325 -2.03178,2.06525c-0.23899,0.34407 -0.47817,0.68842 -0.71712,1.03262c-0.00813,0.01524 -0.01606,0.03047 -0.02381,0.04585c-0.14538,-0.43669 -0.35115,-0.96062 -0.38251,-1.46867c0.56886,-0.67336 1.28937,-0.92854 1.62551,-1.92747c0.43409,-1.29087 -0.04523,-3.35387 -0.26309,-4.65833c-0.12196,-0.73068 0.07754,-1.4387 0.14352,-2.0423c-2.13045,0.23769 -2.06534,3.70102 -2.55766,5.62202c-0.03203,0.02299 -0.06378,0.04599 -0.09581,0.0688c-0.35263,-0.52118 -1.08801,-1.53709 -1.26676,-2.13404c0.4284,-1.26044 1.29525,-2.66142 0.98006,-4.45176c-0.34947,-1.98365 -1.18056,-3.53277 -1.64946,-5.41558c-0.53831,0.15935 -0.73614,1.0077 -0.90835,1.53746c-0.61562,1.89723 -0.25888,4.00199 -0.04776,5.98922c-0.40493,-0.29033 -1.60777,-1.6254 -1.81674,-2.06511c-0.1516,-0.1352 0.03576,-0.74138 0.09562,-1.03262c0.16733,-0.81426 0.34794,-1.93495 0.16733,-2.89148c-0.23139,-1.22529 -0.81072,-1.93137 -1.21905,-2.9371c-0.51513,-1.26875 -0.75077,-2.66279 -1.19261,-4.00814zm-20.05791,18.7172l0,17.07276c-2.15914,-0.00776 -4.31876,-0.01556 -6.47785,-0.02318c-1.35783,0.00018 -2.82347,0.0805 -3.77686,-0.29804c-1.85183,-0.73555 -3.47481,-3.40389 -2.60557,-6.0352c0.41268,-1.24906 1.23894,-1.96667 2.15135,-2.73053l0,-0.02313c-0.3619,-0.12304 -0.66214,-0.44426 -0.88439,-0.71141c-1.32681,-1.59396 -1.49868,-3.92526 -0.02395,-5.53018c2.15001,-2.3397 7.30612,-1.76381 11.61727,-1.72109zm1.57761,17.07276l0,-17.07276c3.52979,-0.04938 8.10336,-0.53687 10.49389,0.84905c1.45718,0.84496 2.84131,2.83558 1.93616,5.11732c-0.36922,0.93083 -0.97705,1.45265 -1.72112,2.01944c0.01602,0.00748 0.03184,0.01505 0.0479,0.02286c0.64373,0.6601 1.40187,1.12506 1.81674,2.01926c0.22025,0.47519 0.36798,0.9954 0.47798,1.58345c0.18248,0.97581 -0.15906,1.99549 -0.43027,2.66187c-0.53918,1.32456 -1.4032,2.20968 -2.86846,2.63888c-0.90772,0.26554 -2.3138,0.13764 -3.44211,0.13745c-2.10344,0.00762 -4.20727,0.01542 -6.31071,0.02318zm-7.26667,-14.91554c-0.44609,0.04585 -0.89252,0.09165 -1.33862,0.13745c-1.1961,0.27073 -2.7543,1.13419 -2.41429,2.73072c0.53463,2.51129 4.30508,2.04551 6.69308,1.49161l0,-4.08451c-0.91901,-0.12548 -1.84695,-0.27009 -2.94017,-0.27527zm12.33443,0c-0.25501,0.01505 -0.5102,0.03047 -0.76502,0.04585c-0.51795,0.07623 -1.0359,0.15283 -1.55365,0.22943l0,3.00608c0,0.26261 -0.09681,0.91963 0.04771,1.07843c0.46517,0.2314 1.09628,0.21502 1.67322,0.3214c2.11071,0.38827 4.40156,0.01909 4.90043,-1.53746c0.16613,-0.51874 0.03882,-1.10775 -0.14352,-1.51461c-0.58674,-1.3095 -2.19872,-1.6427 -4.15917,-1.62911zm-12.47776,7.11349c-0.33465,0.02299 -0.6694,0.0458 -1.00401,0.0688c-1.18582,0.22231 -2.13131,0.54871 -2.65347,1.39982c-0.18569,0.30277 -0.34455,0.87819 -0.2867,1.30804c0.43194,3.21353 4.02393,2.6146 7.02768,2.15708l0,-4.68118c-0.96452,-0.12157 -1.93817,-0.24769 -3.0835,-0.25256zm12.47776,0c-0.19936,0.00776 -0.39857,0.01537 -0.59774,0.02299c-0.57374,0.07641 -1.14734,0.15301 -1.72093,0.22956l0,4.68118c2.32035,0.34357 5.58566,0.87654 6.71684,-0.94102c0.26696,-0.4287 0.40512,-1.15535 0.26294,-1.76684c-0.43801,-1.88493 -2.25676,-2.23983 -4.66111,-2.22588zm33.91951,26.41204c1.32313,-0.01744 2.30787,0.13149 3.22707,0.48207c0.4884,0.18619 0.95491,0.57134 1.55365,0.59658c0.20945,-0.1028 0.32007,-0.28523 0.47812,-0.43613l0.31065,0c0.27236,0.34999 0.64832,3.31353 0.38251,3.67164l-0.31085,0c-0.31285,-0.15063 -0.76248,-1.25636 -1.00382,-1.58326c-0.59635,-0.80829 -1.45345,-1.47335 -2.48595,-1.85881c-1.05005,-0.39198 -2.37399,-0.18252 -3.20312,0.22938c-1.76869,0.87851 -3.42203,3.59739 -2.77304,6.44821c0.44069,1.93527 1.49681,3.38141 3.25102,4.06152c0.70158,0.2722 1.88085,0.42489 2.67723,0.11483c1.13792,-0.44297 1.99148,-1.24778 1.69717,-2.93715c-0.08653,-0.49653 -0.08419,-0.91541 -0.33461,-1.23919c-0.46938,-0.60695 -1.34641,-0.204 -1.9124,-0.57377c0.00808,-0.11464 0.01602,-0.22943 0.02395,-0.34421c0.15413,-0.27963 1.02916,-0.16058 1.45818,-0.16058c1.4818,-0.00766 2.96413,-0.01528 4.44612,-0.02286c0.03184,0.04599 0.06373,0.09179 0.09562,0.13764c0.03911,0.12639 0.00808,0.25678 -0.02395,0.3672c-0.51489,0.30988 -1.39393,0.1347 -1.62551,0.71123c-0.27963,0.69663 0.15518,2.67404 -0.19109,3.2127c-0.22532,0.35036 -0.92049,0.54188 -1.31481,0.73417c-1.48553,0.72554 -3.88313,1.36022 -6.02372,0.73449c-2.75478,-0.80517 -5.66545,-3.6079 -4.54187,-7.52673c0.18047,-0.62944 0.41593,-1.22153 0.74107,-1.72104c0.81359,-1.25003 2.01763,-2.13459 3.53772,-2.70768c0.42233,-0.10721 0.84481,-0.21424 1.26695,-0.32144c0.19936,-0.02281 0.39833,-0.04576 0.59769,-0.0688zm-84.09369,0.02304c0.2508,-0.00812 0.54525,-0.01684 0.69316,0.06898c0.30272,0.65748 0.60548,1.31561 0.90839,1.97328c0.59755,1.51447 1.19524,3.02912 1.79279,4.54354c0.46785,1.16186 0.85136,2.33538 1.33862,3.44212c0.20137,0.45752 0.34842,0.94083 0.64545,1.30804c0.4002,0.4946 1.19151,0.34921 1.60151,0.73426c-0.00808,0.09936 -0.01602,0.19877 -0.02395,0.29836c-0.01582,0.03043 -0.03184,0.06104 -0.04786,0.09179c-0.3304,0.05874 -0.73619,0 -1.05177,-0.04599l-3.17912,0c-0.47444,0.0682 -1.11817,0.09069 -1.38652,-0.09174c-0.00794,-0.01528 -0.01587,-0.03061 -0.02381,-0.04599c-0.00502,-0.20859 0.03609,-0.23787 0.11942,-0.34407c0.47846,-0.07917 1.18109,-0.09165 1.41028,-0.41323c0.2029,-0.28427 0.05823,-0.75331 -0.04771,-1.07843c-0.31873,-0.89485 -0.63732,-1.78988 -0.95611,-2.68487c-1.09155,0.01537 -2.18347,0.03061 -3.27492,0.0458c-0.26514,0.0386 -0.79581,-0.09647 -0.9322,0.06898c-0.3261,0.5315 -1.21814,2.93715 -0.76488,3.51087c0.33513,0.42439 1.14777,0.32984 1.60156,0.64266c0.0099,0.25839 -0.03939,0.30699 -0.14347,0.436c-0.9322,-0.02313 -1.86455,-0.04599 -2.7968,-0.06893c-0.54271,0 -1.12391,0.09725 -1.5777,0c-0.03968,-0.04585 -0.0795,-0.09165 -0.11938,-0.13764c0.00794,-0.07646 0.01582,-0.15306 0.02386,-0.22943c0.13525,-0.25127 0.6837,-0.22442 0.9322,-0.3672c0.45479,-0.26114 0.78529,-0.73215 1.00406,-1.21625c1.18668,-2.62644 2.04937,-5.51449 3.20312,-8.1234c0.34651,-0.78378 0.61796,-1.60483 1.05177,-2.31753zm52.06244,0c1.1873,-0.00831 2.08862,0.09762 2.91637,0.41319c0.38232,0.17578 0.76483,0.35178 1.14734,0.52765c0.11961,-0.11464 0.23899,-0.22938 0.35856,-0.34421c0.07272,-0.17031 0.19214,-0.28868 0.31085,-0.41305l0.35856,0c0.03982,0.0536 0.0796,0.10703 0.11957,0.16068c0.14151,0.27885 0.03963,0.72481 0.09547,1.07843c0.11703,0.74197 0.28556,2.04386 0.14352,2.79947c-0.03997,0.03823 -0.07974,0.0766 -0.11957,0.11483c-0.08768,-0.00766 -0.17541,-0.01537 -0.26294,-0.02304c-0.327,-0.15622 -0.43209,-0.67451 -0.59769,-0.98659c-0.29937,-0.56446 -0.72386,-1.22276 -1.21905,-1.6063c-0.41946,-0.32493 -0.84902,-0.66299 -1.38633,-0.87199c-2.40788,-0.93647 -4.08871,1.07439 -4.7092,2.59308c-1.22106,2.98906 -0.07893,6.17307 1.88845,7.54958c0.69637,0.48703 1.82515,1.03506 3.05974,0.71127c1.04852,-0.27486 1.91757,-0.93193 2.48595,-1.67505c0.24439,-0.31961 0.38958,-0.76988 0.71712,-1.00963c0.11149,0.00762 0.22312,0.01519 0.33461,0.02295c0.04776,0.03809 0.09566,0.07628 0.14352,0.11469c0.00961,0.86662 -0.66108,1.41483 -1.12358,1.85863c-1.11478,1.07007 -2.63277,1.59887 -4.17529,1.5912c-1.36104,-0.00675 -2.7412,-0.43113 -3.88031,-1.26981c-2.54471,-1.87387 -3.10277,-6.32934 -0.95611,-9.06428c0.70445,-0.89746 1.80053,-1.64265 3.03579,-2.01908c0.43816,-0.08426 0.87646,-0.16843 1.31466,-0.2526zm19.19493,0c0.2213,-0.00633 0.52201,-0.02107 0.66921,0.04576c0.33461,0.72651 0.6694,1.45352 1.00387,2.18012c0.57374,1.46068 1.14753,2.92205 1.72127,4.38278c0.4515,1.12262 0.83133,2.25222 1.29071,3.32743c0.20323,0.47606 0.3621,0.9943 0.6694,1.37683c0.41387,0.51572 1.19897,0.36206 1.62532,0.7573c0.00947,0.2336 -0.02797,0.29547 -0.11957,0.41314c-1.14686,0.00275 -2.33689,-0.09193 -3.58543,-0.09193c-0.65133,0 -1.35917,0.13465 -1.9124,0.02295c-0.03184,-0.03818 -0.06358,-0.0766 -0.09562,-0.1146c0.00794,-0.08426 0.01602,-0.16843 0.02395,-0.2526c0.01602,-0.03043 0.03189,-0.06122 0.04776,-0.09165c0.45283,-0.10684 1.18816,-0.10179 1.43423,-0.41314c0.21365,-0.27027 0.07721,-0.76846 -0.02395,-1.07847c-0.31859,-0.90247 -0.63737,-1.80544 -0.95611,-2.70786c-1.4022,0.01537 -2.80473,0.03061 -4.20713,0.0458c-0.15432,0.75253 -1.36152,2.81539 -0.78878,3.55691c0.34861,0.45105 1.21852,0.3018 1.62551,0.68842c0.00875,0.24953 -0.0425,0.28822 -0.14338,0.41319c-0.92422,-0.02313 -1.84863,-0.04599 -2.77285,-0.06893c-0.56164,0 -1.15207,0.09601 -1.62551,0c-0.03189,-0.03828 -0.06373,-0.0766 -0.09562,-0.11478c-0.00841,-0.22575 0.03069,-0.27628 0.11957,-0.39006c1.83782,-0.41209 1.979,-1.88915 2.60538,-3.41918c0.85815,-2.09581 1.61404,-4.30324 2.50995,-6.33338c0.31859,-0.72164 0.57188,-1.48675 0.9802,-2.13404zm26.48542,0c0.22125,-0.00633 0.52196,-0.02107 0.66921,0.04576c0.31065,0.67309 0.6215,1.3464 0.93235,2.01949c0.5975,1.51429 1.19524,3.02908 1.79279,4.54341c0.45197,1.12281 0.83095,2.25286 1.29071,3.32743c0.20476,0.47827 0.36109,0.9927 0.6694,1.37683c0.41401,0.51572 1.19911,0.36206 1.62532,0.7573c0.00942,0.2336 -0.02782,0.29547 -0.11942,0.41314c-1.14834,0.00275 -2.33603,-0.09193 -3.58558,-0.09193c-0.65138,0 -1.35922,0.13465 -1.91221,0.02295c-0.03208,-0.03818 -0.06378,-0.0766 -0.09581,-0.1146c0.00808,-0.08426 0.01602,-0.16843 0.02395,-0.2526c0.01602,-0.03043 0.03189,-0.06122 0.0479,-0.09165c0.4515,-0.10666 1.18869,-0.10244 1.43423,-0.41314c0.22666,-0.28675 0.06358,-0.83073 -0.0479,-1.14727c-0.31065,-0.87966 -0.6215,-1.75945 -0.93215,-2.63906c-1.4022,0.01537 -2.80488,0.03061 -4.20708,0.0458c-0.15418,0.75161 -1.36376,2.81489 -0.78897,3.55691c0.36664,0.47326 1.23368,0.31621 1.62546,0.68842c0.0088,0.24953 -0.0425,0.28822 -0.14333,0.41319c-0.92422,-0.02313 -1.84863,-0.04599 -2.77285,-0.06893c-0.56145,0 -1.15212,0.09601 -1.62551,0c-0.03189,-0.03828 -0.06358,-0.0766 -0.09562,-0.11478c-0.00846,-0.22575 0.03069,-0.27628 0.11957,-0.39006c1.8373,-0.41241 1.97914,-1.88929 2.60552,-3.41918c0.85815,-2.09595 1.61423,-4.30421 2.50995,-6.33338c0.31873,-0.72206 0.57192,-1.48693 0.98006,-2.13404zm-109.26449,0.06898c0.74556,-0.00991 1.55447,-0.04667 2.1752,0.09161c1.4621,0.32608 2.96221,1.28357 2.58171,3.2585c-0.05947,0.30813 -0.16336,0.63279 -0.3108,0.87204c-0.3391,0.55014 -0.91509,0.97824 -1.52989,1.262c-0.22302,0.09183 -0.44619,0.18362 -0.66921,0.27546c1.62513,0.26454 3.68129,1.86657 3.01193,4.01576c-0.17885,0.57423 -0.51388,1.00913 -0.86059,1.42277c-1.25911,1.50121 -3.52477,1.12432 -6.09543,1.12432c-0.89027,0 -3.16889,0.2085 -3.63353,-0.11478a1.81621,1.74353 0 0 1 -0.00139,-0.06131l0,-0.00945c0.00086,-0.17697 0.03944,-0.23746 0.12095,-0.34228c0.45575,-0.04392 1.11798,-0.14897 1.33857,-0.436c0.46789,-0.60893 0.23268,-1.63577 0.38256,-2.56995c0.00794,-0.8032 0.01582,-1.6064 0.02395,-2.40959c0.20189,-1.2621 0.1472,-4.35786 -0.28694,-5.23182c-0.19204,-0.3868 -0.92054,-0.35834 -1.26686,-0.59676c-0.00053,-0.66808 0.70373,-0.4589 1.33847,-0.4589c0.86455,0.00018 1.78208,0.07242 2.60557,-0.0458c0.35861,-0.01537 0.71716,-0.03061 1.07572,-0.0458zm19.86405,0.06884c1.09962,0.03818 2.19925,0.07637 3.29887,0.11478l2.58142,0c0.03997,0.04576 0.07979,0.09165 0.11961,0.13759c-0.00813,0.09179 -0.01587,0.18344 -0.02381,0.27527c-0.03963,0.08385 -0.05718,0.0989 -0.14352,0.13773c-0.79083,0.18752 -1.39512,0.10895 -1.76884,0.66524c-0.33126,0.49332 -0.10207,1.28651 -0.21523,2.01949c-0.01582,0.95607 -0.03189,1.91224 -0.04771,2.86849l0,2.47807c0.12717,0.80081 -0.15738,1.75326 0.19123,2.31785c0.37864,0.61347 1.43461,0.65427 2.41415,0.50484c1.6464,-0.25113 2.51751,-1.07425 3.29887,-2.13423c0.25247,-0.3426 0.39604,-0.91509 0.74107,-1.17012c0.21437,-0.0084 0.29603,0.01749 0.40632,0.09165c0.09968,0.664 -0.36922,3.54199 -0.6215,3.99277c-2.53352,-0.01505 -5.0679,-0.03043 -7.60147,-0.0458c-0.8996,0.00014 -2.33703,0.32654 -2.96408,-0.09165c0.01042,-0.60443 0.63532,-0.39134 1.09962,-0.52783c0.43648,-0.12837 0.70158,-0.4326 0.86049,-0.82624c0.26074,-0.64615 0.06507,-1.47881 0.19123,-2.29467c0.00794,-1.52961 0.01587,-3.05982 0.02395,-4.58935c0,-0.93973 0.02089,-1.97667 -0.35856,-2.57009c-0.42095,-0.65845 -1.12678,-0.48033 -1.72112,-0.89499c0.00794,-0.09941 0.01602,-0.19886 0.02395,-0.29827c0.05617,-0.11042 0.10742,-0.10326 0.21504,-0.16054zm50.48483,0c1.22545,-0.00799 2.36098,0.01891 3.56182,0c0.56585,-0.00913 1.27823,-0.06416 1.60156,0.16054c0.00827,0.22575 -0.03069,0.27619 -0.11957,0.39006c-0.56078,0.12465 -1.12578,0.18908 -1.38638,0.59663c-0.33628,0.5259 -0.14519,1.3951 -0.26309,2.13404c-0.13104,0.82261 -0.16226,2.66903 -0.02381,3.51097c0.02381,0.71884 0.04776,1.43815 0.07171,2.15708c0.11636,0.70751 -0.05718,1.48932 0.19123,2.0652c0.31338,0.72614 1.05918,0.38808 1.52989,0.82605c-0.00794,0.09183 -0.01602,0.18358 -0.02395,0.27541c-0.0393,0.08385 -0.05718,0.0989 -0.14352,0.13764l-3.63319,0c-0.5213,0.00014 -1.04532,0.08334 -1.36271,-0.13764c0.00808,-0.09941 0.01602,-0.199 0.02395,-0.29827c0.03944,-0.08403 0.05718,-0.09909 0.14352,-0.13777c0.42468,-0.15558 0.86503,-0.01973 1.07567,-0.36702c0.33714,-0.55601 0.07099,-1.51474 0.19109,-2.27186l0,-3.60289c-0.00794,-0.51241 -0.01568,-1.02501 -0.02376,-1.53742c-0.16006,-0.98067 0.10336,-2.02252 -0.26294,-2.77656c-0.21523,-0.44274 -0.90199,-0.41626 -1.2909,-0.68837c0.00813,-0.09927 0.01602,-0.199 0.02381,-0.29822c0.03997,-0.04585 0.07974,-0.09183 0.11957,-0.13759zm-35.37755,5.59893c1.0303,0.00826 2.23501,0.08922 2.72494,-0.4818c0.35956,-0.4192 0.48152,-1.03455 0.81292,-1.49161c0.22058,-0.0089 0.31653,0.01551 0.43022,0.09179c0.1145,0.60048 0.02094,1.45049 -0.07166,2.06506c0.00794,0.86424 0.01582,1.72889 0.02376,2.59308c-0.04771,0.04599 -0.09562,0.09179 -0.14333,0.13777c-0.07979,-0.00757 -0.15958,-0.01537 -0.23899,-0.02295c-0.31759,-0.15921 -0.32366,-0.8965 -0.50208,-1.19325c-0.39351,-0.65473 -0.92647,-0.78929 -1.8645,-0.94079c-0.22498,-0.0363 -0.95544,-0.18413 -1.14738,-0.02286c-0.00789,0.71109 -0.01602,1.42263 -0.0239,2.13386c0.12798,0.81637 -0.10795,1.69387 0.16728,2.34066c0.4842,1.13726 2.90422,1.10261 4.27893,0.71145c0.91614,-0.26068 1.72858,-0.70916 2.22287,-1.37683c0.24893,-0.33595 0.37964,-0.89503 0.71716,-1.14745c0.09576,0.00762 0.19123,0.01537 0.28685,0.02304c0.03208,0.01515 0.06378,0.03057 0.09566,0.04599c0.10824,0.51549 -0.47951,2.97139 -0.69321,3.32725c-2.00783,-0.02295 -4.01599,-0.0458 -6.02367,-0.0688c-0.67729,-0.02313 -1.35477,-0.04599 -2.03192,-0.06893c-0.80417,-0.11822 -2.39861,0.20428 -2.94017,-0.13764l0,-0.04603l0,-0.25224c0.05565,-0.04594 0.11149,-0.09193 0.16728,-0.13777c0.59874,-0.14438 1.17287,-0.03419 1.48199,-0.43604c0.38672,-0.50282 0.35875,-1.57046 0.35856,-2.40941l0,-2.73067c0.11756,-0.72793 0.09428,-1.798 -0.02376,-2.50115c-0.12196,-0.72596 0.1462,-1.71893 -0.16733,-2.29486c-0.25921,-0.47597 -1.06018,-0.48166 -1.52985,-0.75721c-0.05331,-0.17986 -0.04183,-0.29602 0.04771,-0.43581c0.62518,-0.14571 1.6051,-0.047 2.24701,0.04576c1.68905,0.01524 3.37867,0.03043 5.06771,0.04589c0.59874,0 2.44637,-0.12589 2.84456,0.04594c0.12244,0.52145 0.73079,2.66348 0.45403,3.12073c-0.01587,0.00757 -0.03174,0.01519 -0.04776,0.02286c-0.07166,-0.00766 -0.14352,-0.01528 -0.21504,-0.02286c-0.22465,-0.10748 -0.29124,-0.36041 -0.43041,-0.55087c-0.32261,-0.44132 -0.70512,-0.93395 -1.14734,-1.262c-1.23741,-0.9177 -3.0803,-0.80788 -5.04362,-0.61962c-0.19802,1.41603 -0.14137,3.07121 -0.14352,4.65833zm8.3902,-5.46134c1.05177,0.00762 2.10363,0.01519 3.1554,0.02295c0.6532,0.76469 1.30673,1.52989 1.96007,2.29472c1.90413,2.11087 3.80874,4.22247 5.71288,6.33338l0,-0.04576c0.02395,-0.6579 0.0479,-1.31588 0.07166,-1.97369c0,-1.59671 0.30105,-4.39035 -0.45403,-5.32375c-0.23273,-0.28753 -0.66754,-0.50626 -1.09962,-0.59649c-0.26041,-0.05452 -0.78677,0.04424 -0.88439,-0.16058c-0.27442,-0.57639 0.80647,-0.47872 1.17129,-0.48194c0.96404,-0.01547 1.92823,-0.03066 2.89227,-0.04589c0.41473,0 0.92862,-0.03396 1.26695,0.04589c0.03203,0.03818 0.06373,0.07651 0.09562,0.11478c-0.00794,0.08399 -0.01587,0.16816 -0.02381,0.25242c-0.03944,0.08367 -0.05718,0.0989 -0.14352,0.13759c-0.79366,0.34159 -1.36477,0.04837 -1.79279,0.849c-0.38437,0.71953 -0.26309,2.14813 -0.26294,3.16671c-0.02376,1.69791 -0.0479,3.39623 -0.07166,5.09437c-0.12784,0.76189 0.08921,1.60383 -0.07166,2.29467c-0.04776,0.04599 -0.09581,0.09179 -0.14357,0.13764c-0.63579,-0.01138 -1.96059,-1.81159 -2.34243,-2.27173c-1.53338,-1.84748 -3.30882,-3.55562 -4.85253,-5.39259c-0.36243,-0.43145 -0.78663,-1.04511 -1.1951,-1.42282l0,2.01944c0,1.48693 -0.01602,3.00108 0.21504,4.31398c0.09107,0.51728 0.04924,1.09417 0.31085,1.44581c0.21872,0.294 0.64794,0.57965 1.07567,0.66529c0.42836,0.0861 0.70904,-0.00023 0.95611,0.22956c0.00708,0.23961 -0.0457,0.2694 -0.14338,0.39019c-1.26676,0.00762 -2.53405,0.01519 -3.80081,0.02286c-0.52976,0 -1.2376,0.07201 -1.5538,-0.13764c0.00722,-0.67387 0.58808,-0.40089 1.12358,-0.52783c0.43682,-0.10358 0.75407,-0.31217 0.90835,-0.68842c0.2955,-0.72128 0.2955,-2.95124 0.14338,-3.92392c-0.01587,-0.81068 -0.03189,-1.62163 -0.04771,-2.43249c-0.12043,-0.76947 0.02089,-1.50635 -0.23899,-2.08806c-0.27102,-0.60663 -0.77649,-1.29496 -1.38652,-1.58345c-0.25199,-0.11914 -0.59941,-0.13502 -0.81273,-0.27537c-0.0152,-0.32755 0.05412,-0.35265 0.26289,-0.45885zm-43.60052,0.413c-0.39049,0.08403 -0.78103,0.1682 -1.17138,0.25242c-0.02386,1.10124 -0.04776,2.20302 -0.07162,3.30449c0,0.45022 -0.0392,1.00008 0.04776,1.37683c0.4524,0.16242 1.25175,0.028 1.69722,-0.06903c1.52899,-0.33301 2.23587,-0.77727 2.4859,-2.36342c0.0784,-0.49639 -0.10408,-1.09646 -0.31065,-1.42286c-0.47354,-0.74799 -1.40081,-1.09412 -2.67723,-1.07843zm11.44994,1.78984c-0.22321,0.49708 -0.44624,0.99439 -0.66936,1.49166c-0.38241,1.00183 -0.76488,2.00407 -1.14734,3.00608l3.63334,0c-0.17369,-0.91908 -0.85083,-2.17227 -1.21919,-3.02908c-0.19902,-0.4896 -0.39838,-0.9792 -0.59745,-1.46867zm71.25728,0.02299c-0.6672,1.39129 -1.38432,2.91998 -1.81674,4.47475l3.63334,0l0,-0.02313c-0.60548,-1.48372 -1.21111,-2.9679 -1.8166,-4.45162zm26.48542,0c-0.66754,1.39207 -1.38365,2.91737 -1.81674,4.47475l3.63348,0l0,-0.02313c-0.60544,-1.48372 -1.21111,-2.9679 -1.81674,-4.45162zm-109.76628,3.80933c-0.17029,0.0576 -0.50002,-0.01519 -0.6216,0.09165c-0.1963,0.36624 -0.1189,1.12212 -0.11957,1.6292c-0.0012,1.10615 -0.20968,2.4822 0.0479,3.48793c0.46082,0.23838 0.91934,0.20239 1.60156,0.29841c2.25762,0.31722 3.64782,-1.6885 2.98789,-3.76329c-0.45819,-1.44044 -1.90547,-1.76023 -3.89618,-1.74389z"/>
  </g>
  <g stroke="null">

   <g stroke="null" id="svg_3" transform="translate(327.324 -141.903)">
    <path stroke="null" fill-rule="nonzero" fill="#ffffff" id="svg_4" d="m-239.47576,175.36271l2.07741,5.97415l-4.16948,0l2.07741,-5.97415l0.01466,0l0,0zm-2.94411,8.56952l5.88821,0l1.10605,3.19842l2.42074,0l-5.36485,-14.86585l-2.18208,0l-5.36485,14.86585l2.39073,0l1.10605,-3.19842zm73.5692,-8.56952l2.07741,5.97415l-4.17018,0l2.07741,-5.97415l0.01535,0l0,0zm-2.94411,8.56952l5.88752,0l1.10605,3.19842l2.42144,0l-5.36555,-14.86585l-2.18209,0l-5.36415,14.86585l2.39073,0l1.10605,-3.19842zm-21.92136,-4.26456c0,4.54636 2.49541,7.78518 6.14153,7.78518c2.37608,0 3.66147,-1.18732 4.78287,-2.43381l-1.24072,-2.17361c-0.76202,0.78528 -1.83876,1.87115 -3.49678,1.87115c-2.30142,0 -3.85616,-2.07122 -3.85616,-5.0489c0,-2.97674 1.53939,-4.98878 3.76614,-4.98878c1.49473,0 2.48076,0.64344 3.30279,1.56868l1.22537,-2.1924c-1.15071,-1.28782 -2.49541,-2.11256 -4.52816,-2.11256c-3.49678,0 -6.09686,3.21909 -6.09686,7.72506m43.38145,-5.73274c-1.33005,-1.28782 -2.55542,-1.99232 -4.60283,-1.99232c-3.55679,0 -6.17153,3.1787 -6.17153,7.72506c0,4.56609 2.55472,7.78518 6.17153,7.78518c2.30211,0 3.88547,-1.04642 5.20086,-2.67522l0,-5.71395l-5.35019,0l0,2.53525l3.25743,0l0,1.97071c-0.46265,0.50348 -1.41937,1.20798 -3.04808,1.20798c-2.31607,0 -3.93083,-2.13228 -3.93083,-5.10996c0,-2.97674 1.62941,-5.00945 3.87081,-5.00945c1.55475,0 2.57077,0.68477 3.37745,1.46911l1.22537,-2.1924zm-101.47019,6.73782c0.53802,0 0.91205,0.10145 1.22537,0.4227c0.29937,0.30247 0.50802,0.78528 0.50802,1.44845c0,0.66411 -0.20865,1.16665 -0.50802,1.46911c-0.31332,0.32125 -0.68735,0.40203 -1.22537,0.40203l-4.37813,0l0,-3.7423l4.37813,0zm-0.43335,-5.69234c0.62804,0 0.95671,0.16062 1.18071,0.44242c0.20935,0.30246 0.32867,0.68477 0.32867,1.10653c0,0.4227 -0.11933,0.80501 -0.32867,1.10653c-0.224,0.28086 -0.55268,0.44242 -1.18071,0.44242l-3.94478,0l0,-3.09791l3.94478,0zm32.24981,12.15024l9.32499,0l0,-2.71561l-7.1429,0l0,-3.7423l5.3495,0l0,-2.59443l-5.3495,0l0,-3.09791l6.84423,0l0,-2.71561l-9.02632,0l0,14.86585zm78.65074,-11.76794l2.07672,5.97415l-4.16948,0l2.07741,-5.97415l0.01535,0l0,0zm-2.94411,8.56952l5.88752,0l1.10605,3.19842l2.42074,0l-5.36485,-14.86585l-2.18139,0l-5.36555,14.86585l2.39143,0l1.10605,-3.19842zm-33.53589,-11.66743l-2.18209,0l0,14.86585l2.18209,0l0,-14.86585zm-45.18951,12.15025l-5.29018,0l0,-12.15025l-2.18209,0l0,14.86585l7.47227,0l0,-2.71561zm17.9033,-1.79037c0,-3.15803 -0.10467,-5.93375 -0.10467,-5.93375l0.03001,0c0,0 1.01603,1.95099 2.86944,5.02824l3.25813,5.41149l2.13673,0l0,-14.86585l-2.18209,0l0,4.58675c0,3.15803 0.08932,5.95442 0.08932,5.95442l-0.02931,0c0,0 -1.01673,-1.95099 -2.85479,-5.04984l-3.25743,-5.49133l-2.13743,0l0,14.86585l2.18209,0l0,-4.50597zm-46.55166,4.50597c1.25538,0 2.0174,-0.36164 2.61543,-0.98536c0.79203,-0.82473 1.28539,-2.11256 1.28539,-3.66151c0,-2.1924 -1.07604,-3.35905 -1.97274,-3.66151l0,-0.03945c0.85204,-0.52321 1.31539,-1.71052 1.31539,-2.87717c0,-1.32727 -0.38869,-2.25252 -1.00137,-2.83584c-0.59803,-0.5636 -1.40471,-0.80501 -2.80943,-0.80501l-6.14222,0l0,14.86585l6.70955,0z"/>
   </g>
  </g>
 </g>

</svg>